Freaks and Geeks ~ The Complete Series (1999-2000)

Freaks and Geeks is an American comedy-drama television series, created by Paul Feig and executive produced by Judd Apatow, that aired on NBC during the 1999–2000 television season. Eighteen episodes were completed, but the series was canceled after only twelve had aired.

A fan-led campaign persuaded NBC to broadcast three more episodes in July 2000; the three remaining unaired episodes were not seen until September of that year, when the cable network Fox Family Channel aired them in syndication. The complete series was later released on DVD.

Despite a quick cancellation and only one season with 18 episodes, Freaks and Geeks developed a devoted cult following. The series appeared on Time magazine's 2007 "100 Greatest Shows of All Time" list, and in 2008 Entertainment Weekly ranked it the 13th-best series of the past 25 years.

Weir family

    * Linda Cardellini as Lindsay Weir
    * John Francis Daley as Sam Weir
    * Joe Flaherty as Harold Weir
    * Becky Ann Baker as Jean Weir

Geeks

    * Samm Levine as Neal Schweiber
    * Martin Starr as Bill Haverchuck
    * Sarah Hagan as Millie Kentner
    * Jerry Messing as Gordon Crisp
    * Stephen Lea Sheppard as Harris Trinsky

Freaks

    * James Franco as Daniel Desario
    * Busy Philipps as Kim Kelly
    * Jason Segel as Nick Andopolis
    * Seth Rogen as Ken Miller

Faculty

    * Dave "Gruber" Allen as Mr. Rosso
    * Steve Bannos as Mr. Kowchevski
    * Trace Beaulieu as Mr. Lacovara
    * Steve Higgins as Mr. Fleck
    * Leslie Mann as Ms. Foote
    * Thomas F. Wilson as Coach Fredricks
 
Episodes:

DVD 1 of 6

1. Pilot Episode
2. Beers and Weirs
3. Tricks and Treats

DVD 2 of 6

4. Kim Kelly is My Friend
5. Tests and Breasts
6. I'm With the Band

DVD 3 of 6

7. Carded and Discarded
8. Girlfriends and Boyfriends
9. We've Got Spirit

DVD 4 of 6

10. The Diary
11. Looks and Books
12. The Garage Door

DVD 5 of 6

13. Chokin' and Tokin'
14. Dead Dogs and Gym Teachers
15. Noshing and Moshing

DVD 6 of 6

16. Smooching and Mooching
17. The Little Things
18. Discos and Dragons

Media Info:
General
Complete name                    : J:\Seeding\Freaks and Geeks Complete 3of6[DVDRip][big_dad_e™]\DVD 3 of 6.avi
Format                           : AVI
Format/Info                      : Audio Video Interleave
Format profile                   : OpenDML
File size                        : 2.71 GiB
Duration                         : 2h 12mn
Overall bit rate                 : 2 925 Kbps
Writing application              : Lavf51.12.1

Video
ID                               : 0
Format                           : MPEG-4 Visual
Format profile                   : Simple@L1
Format settings, BVOP            : No
Format settings, QPel            : No
Format settings, GMC             : No warppoints
Format settings, Matrix          : Default (H.263)
Codec ID                         : DX50
Codec ID/Hint                    : DivX 5
Duration                         : 2h 12mn
Bit rate                         : 2 593 Kbps
Width                            : 720 pixels
Height                           : 540 pixels
Display aspect ratio             : 4:3
Frame rate                       : 23.976 fps
Color space                      : YUV
Chroma subsampling               : 4:2:0
Bit depth                        : 8 bits
Scan type                        : Progressive
Bits/(Pixel*Frame)               : 0.278
Stream size                      : 2.40 GiB (89%)
Writing library                  : Lavc51.40.4

Audio
ID                               : 1
Format                           : MPEG Audio
Format version                   : Version 1
Format profile                   : Layer 3
Mode                             : Joint stereo
Mode extension                   : MS Stereo
Codec ID                         : 55
Codec ID/Hint                    : MP3
Duration                         : 2h 12mn
Bit rate mode                    : Constant
Bit rate                         : 320 Kbps
Channel(s)                       : 2 channels
Sampling rate                    : 44.1 KHz
Stream size                      : 303 MiB (11%)
Alignment                        : Aligned on interleaves
Interleave, duration             : 26 ms (0.63 video frame)
Writing library                  : LAME3.97

File Scan:
Malwarebytes' Anti-Malware 1.50
www.malwarebytes.org

Database version: 5246

Windows 5.1.2600 Service Pack 3
Internet Explorer 8.0.6001.18702

12/4/2010 8:47:56 PM
mbam-log-2010-12-04 (20-47-56).txt

Scan type: Quick scan
Objects scanned: 6
Time elapsed: 6 second(s)

Memory Processes Infected: 0
Memory Modules Infected: 0
Registry Keys Infected: 0
Registry Values Infected: 0
Registry Data Items Infected: 0
Folders Infected: 0
Files Infected: 0

Memory Processes Infected:
(No malicious items detected)

Memory Modules Infected:
(No malicious items detected)

Registry Keys Infected:
(No malicious items detected)

Registry Values Infected:
(No malicious items detected)

Registry Data Items Infected:
(No malicious items detected)

Folders Infected:
(No malicious items detected)

Files Infected:
(No malicious items detected)

When using TPB please read these important notes:
  
01- Anti-malware apps may warn about keygens, patches, cracks, etc., because of 
    their capabilities, (generating codes, etc.). Sometimes they're added to 
    the virus/spyware database and will be detected as malware. If you don't trust
    the keygens, patches, cracks, etc., don't use them. 
    
02- Before running .exe-files, keygens, patches, cracks, etc., always check first 
    if they can be unpacked. Often some third party added a virus to the 
    original file, repacked it and uploaded it again.

03- Letting anti-malware apps send scan results to their companies can cause
    keygens, patches, cracks, etc., to be added to their virus-database.

04- Firewalls which are set to automatically determine connections will allow 
    apps & malware!. Avoid this by manually configuring your firewall.

05- Usually (new) torrents with many downloads and seeders in a brief period is
    suspicious! Torrents with the Skull & Crossbones icon are trusted.

06- Some people use multiple accounts and post fake comments 
    and/or files trying to spread confusion. They seldom seriously
    comment or have any torrents, or a just a few to look passable.

07- Clicking on unknown links can cause malware to be installed on your machine.
  
08- In general often there are more fake and negative comments than reliable and
    positive comments.

09- In some countries uploading/downloading copyright protected material is 
    forbidden, but showing some appreciation to reliable up-loaders is not.

10- Posting fake and negative comments or fake/infected uploads on TPB can result
    in getting banned from TPB!

Requests?  Find me on SuprBay.
 

For reporting bad or suspicious torrents:  
http://forum.suprbay.org/forumdisplay.php?fid=29

For more of my torrents: 
https://thepiratebay.org/user/big_dad_e/  (Secured)

All torrents scanned with:
Norton Anti-virus
Malwarebytes' Anti-malware
 
http://www.pirate-party.us/

ALWAYS SEED & THANKS SEEDERS!